<?xml version="1.0" encoding="UTF-8" standalone="no"?>
<svg
   xmlns:dc="http://purl.org/dc/elements/1.1/"
   xmlns:cc="http://creativecommons.org/ns#"
   xmlns:rdf="http://www.w3.org/1999/02/22-rdf-syntax-ns#"
   xmlns:svg="http://www.w3.org/2000/svg"
   xmlns="http://www.w3.org/2000/svg"
   viewBox="0 0 3333.3333 1333.3333"
   height="50"
   width="90"
   xml:space="preserve"
   id="svg2"
   version="1.1"><metadata
     id="metadata8"><rdf:RDF><cc:Work
         rdf:about=""><dc:format>image/svg+xml</dc:format><dc:type
           rdf:resource="http://purl.org/dc/dcmitype/StillImage" /></cc:Work></rdf:RDF></metadata><defs
     id="defs6"><clipPath
       id="clipPath20"
       clipPathUnits="userSpaceOnUse"><path
         id="path18"
         d="M 0,1000 H 2500 V 0 H 0 Z" /></clipPath></defs><g
     transform="matrix(1.3333333,0,0,-1.3333333,0,1333.3333)"
     id="g10"><path
       id="path12"
       style="fill:#f0141e;fill-opacity:1;fill-rule:nonzero;stroke:none"
       d="M 0,0 H 2500 V 1000 H 0 Z" /><g
       id="g14"><g
         clip-path="url(#clipPath20)"
         id="g16"><g
           transform="translate(2423.0352,231.5098)"
           id="g22"><path
             id="path24"
             style="fill:#ffffff;fill-opacity:1;fill-rule:nonzero;stroke:none"
             d="m 0,0 v -150.939 h -281.07 v 839.594 h 151.36 L -129.71,0 Z m -1200.93,276.915 c -11.72,-5.615 -23.92,-8.425 -35.86,-8.455 v 270.05 c 0.185,0 0.465,0.03 0.765,0.03 11.9,0.09 101.015,-3.57 101.015,-133.545 0,-67.99 -30.301,-110.87 -65.92,-128.08 m -443.54,-165.774 41.935,359.009 43.45,-359.009 z m 1337.034,424.254 v 153.14 h -428.529 l -70.55,-511.41 -69.7,511.41 h -154.54 l 17.27,-136.56 c -17.815,35 -81.055,136.56 -220.305,136.56 -0.925,0.06 -154.725,0 -154.725,0 l -0.64,-745.42 -112.615,745.42 -202.42,0.06 -116.52,-772.335 0.065,772.275 h -193.76 l -69.825,-433.84 -68.02,433.84 h -193.79 v -839.66 h 152.615 v 404.721 l 69.43,-404.721 h 81.12 l 68.45,404.721 v -404.721 h 294.19 l 17.79,129.15 h 118.44 l 17.79,-129.15 288.855,-0.185 h 0.21 v 0.185 h 0.36 v 272.521 l 35.37,5.12 73.305,-277.826 H -978.7 l -0.06,0.185 h 0.425 l -96.19,325.55 c 48.705,35.895 103.76,126.895 89.11,213.99 v 0.03 c 0.18,-1.13 90.819,-540.13 90.819,-540.13 l 177.671,0.55 121.395,761.015 v -761.015 h 288.085 V -0.14 h -136.72 v 192.536 h 136.72 v 153.299 h -136.72 v 189.701 h 136.729 z" /></g></g></g></g></svg>