<?xml version="1.0" standalone="no"?>
<!DOCTYPE svg PUBLIC "-//W3C//DTD SVG 20010904//EN"
 "http://www.w3.org/TR/2001/REC-SVG-20010904/DTD/svg10.dtd">
<svg version="1.0" xmlns="http://www.w3.org/2000/svg"
 width="50" height="50" viewBox="0 0 256.000000 256.000000"
 preserveAspectRatio="xMidYMid meet">

<g transform="translate(0.000000,256.000000) scale(0.100000,-0.100000)"
fill="#A100FF" stroke="none">
<path d="M1700 2427 c0 -129 7 -125 -207 -129 l-173 -3 -27 -27 c-25 -26 -28
-35 -31 -128 l-4 -100 -85 0 c-76 0 -86 -2 -108 -25 -21 -20 -25 -34 -25 -80
l0 -55 -475 0 -476 0 -24 -25 -25 -24 0 -711 0 -711 25 -24 c20 -21 34 -25 80
-25 l55 0 0 440 0 440 80 0 80 0 0 -240 0 -240 60 0 60 0 0 240 0 240 60 0 60
0 0 -240 0 -240 60 0 60 0 0 240 0 240 140 0 140 0 0 -240 0 -240 60 0 60 0 0
240 0 240 60 0 60 0 0 -240 0 -240 60 0 60 0 0 240 0 240 60 0 60 0 0 -240 0
-240 60 0 60 0 0 240 0 240 120 0 120 0 0 -240 0 -240 60 0 60 0 0 240 0 240
60 0 60 0 0 -240 0 -240 60 0 60 0 0 240 0 240 80 0 80 0 0 -440 0 -440 55 0
c46 0 60 4 80 25 l25 24 0 711 0 711 -25 24 -24 25 -476 0 -475 0 0 55 c0 46
-4 60 -25 80 -22 23 -32 25 -110 25 l-85 0 0 93 c0 129 -7 125 207 129 l173 3
27 27 c25 26 28 35 31 128 4 96 4 100 -17 100 -20 0 -21 -5 -21 -93z m-900
-787 l0 -40 -40 0 -40 0 0 40 0 40 40 0 40 0 0 -40z m160 0 l0 -40 -40 0 -40
0 0 40 0 40 40 0 40 0 0 -40z m-502 -28 c49 -66 -4 -148 -83 -128 -61 15 -72
110 -17 141 32 18 82 12 100 -13z m1760 0 c49 -66 -4 -148 -83 -128 -61 15
-72 110 -17 141 32 18 82 12 100 -13z m-1418 -132 l0 -40 -40 0 -40 0 0 40 0
40 40 0 40 0 0 -40z m160 0 l0 -40 -40 0 -40 0 0 40 0 40 40 0 40 0 0 -40z"/>
</g>
</svg>
